# xmcd
#
# Track frame offsets:
# 150
# 12645
# 23472
# 38895
# 53292
# 68385
# 79885
# 93762
# 106175
# 122510
# 132802
# 147730
# 159837
# 174457
# 184307
# 195840
# 209627
# 221390
# 236227
# 249722
# 260592
# 270855
# 283772
# 296197
# 311345
#
# Disc length: 4377 seconds
#
#
# Revision: 1
# Processed by: cddbd v1.5.2PL0 Copyright (c) Steve Scherf et al.
# Submitted via: FreeRIP 2.96 
#
DISCID=5d111719
DTITLE=Varios - Meio século de música sertaneja
DYEAR=1900
DGENRE=Country
TTITLE0=Pingo d'agua.
TTITLE1=Pombinha Mensageira
TTITLE2=Mais uma lição
TTITLE3=Disco Voador
TTITLE4=Viola Cabocla
TTITLE5=Noite fria
TTITLE6=Chalana
TTITLE7=Conselho de amigo
TTITLE8=Meu velho pai
TTITLE9=Tchau, amor
TTITLE10=No Colo da Noite
TTITLE11=João de Barro
TTITLE12=A moda da mula preta
TTITLE13=Amanheci e teus braços
TTITLE14=O Menino e o Circo
TTITLE15=Canoeiro
TTITLE16=Paraná do norte
TTITLE17=Abra a porta mariquinha
TTITLE18=Meu Passarinho
TTITLE19=Cantando
TTITLE20=Meu Irmão da Roça
TTITLE21=Lágrimas da Alma
TTITLE22=Rio de lágrimas
TTITLE23=Caminheiro
TTITLE24=Couro de Boi
EXTD=
EXTT0=
EXTT1=
EXTT2=
EXTT3=
EXTT4=
EXTT5=
EXTT6=
EXTT7=
EXTT8=
EXTT9=
EXTT10=
EXTT11=
EXTT12=
EXTT13=
EXTT14=
EXTT15=
EXTT16=
EXTT17=
EXTT18=
EXTT19=
EXTT20=
EXTT21=
EXTT22=
EXTT23=
EXTT24=
PLAYORDER=
